PathFileType	4	(X/Y/Z)	 2.6Hz3min.trc
DataRate	CameraRate	NumFrames	NumMarkers	Units	OrigDataRate	OrigDataStartFrame	OrigNumFrames
200	200	8	43	m	200	751	1000
Frame#	Time	C7			LSH			RSH			MAN			RASI			LASI			HIPR			HIPL			RPSI			LPSI			COX			RTHI1			RTHI2			RTHI3			RTHI4			RLKN			RMKN			RSHA1			RSHA2			RSHA3			RSHA4			RLMAL			RMMAL			RHEEL			RMET5			RMET1			RTOE			LTHI1			LTHI2			LTHI3			LTHI4			LLKN			LMKN			LSHA1			LSHA2			LSHA3			LSHA4			LLMAL			LMMAL			LHEEL			LMET5			LMET1			LTOE			
		X1	Y1	Z1	X2	Y2	Z2	X3	Y3	Z3	X4	Y4	Z4	X5	Y5	Z5	X6	Y6	Z6	X7	Y7	Z7	X8	Y8	Z8	X9	Y9	Z9	X10	Y10	Z10	X11	Y11	Z11	X12	Y12	Z12	X13	Y13	Z13	X14	Y14	Z14	X15	Y15	Z15	X16	Y16	Z16	X17	Y17	Z17	X18	Y18	Z18	X19	Y19	Z19	X20	Y20	Z20	X21	Y21	Z21	X22	Y22	Z22	X23	Y23	Z23	X24	Y24	Z24	X25	Y25	Z25	X26	Y26	Z26	X27	Y27	Z27	X28	Y28	Z28	X29	Y29	Z29	X30	Y30	Z30	X31	Y31	Z31	X32	Y32	Z32	X33	Y33	Z33	X34	Y34	Z34	X35	Y35	Z35	X36	Y36	Z36	X37	Y37	Z37	X38	Y38	Z38	X39	Y39	Z39	X40	Y40	Z40	X41	Y41	Z41	X42	Y42	Z42	X43	Y43	Z43	
751	3.7550	-0.109575	1.538174	-0.564460	-0.044526	1.483692	-0.770466	-0.028270	1.477881	-0.359585	0.015106	1.441918	-0.564288	-0.068217	1.003325	-0.442286	-0.065571	1.009078	-0.678409	-0.153695	1.060885	-0.394949	-0.148391	1.049764	-0.721948	-0.251283	1.047773	-0.511584	-0.242819	1.048549	-0.614814	-0.250703	1.046837	-0.562830	-0.143557	0.733051	-0.355894	-0.131894	0.674085	-0.352918	-0.068264	0.682665	-0.347040	-0.071044	0.744186	-0.350195	-0.104432	0.484981	-0.353016	-0.099487	0.470039	-0.483716	-0.206292	0.344853	-0.330913	-0.227073	0.307880	-0.334658	-0.170723	0.284746	-0.333633	-0.157045	0.322038	-0.334443	-0.280276	0.116589	-0.345585	-0.247637	0.113107	-0.436201	-0.338777	0.089647	-0.391422	-0.180620	0.032259	-0.314994	-0.134233	0.043935	-0.394407	-0.107161	0.033987	-0.387054	-0.131383	0.747520	-0.756650	-0.117647	0.687456	-0.759931	-0.053355	0.696377	-0.764656	-0.059720	0.756024	-0.762653	-0.086222	0.481997	-0.752578	-0.072186	0.470271	-0.626379	-0.181511	0.329095	-0.774063	-0.194608	0.286111	-0.768951	-0.144025	0.270185	-0.759893	-0.125340	0.306546	-0.763668	-0.236455	0.109152	-0.764809	-0.227863	0.111278	-0.671072	-0.310261	0.088712	-0.726671	-0.136771	0.028641	-0.773464	-0.110100	0.044471	-0.692528	-0.085006	0.032495	-0.688136	
752	3.7600	-0.109812	1.534887	-0.564659	-0.044922	1.480102	-0.770674	-0.028619	1.474463	-0.359616	0.015002	1.438279	-0.564374	-0.068013	0.999738	-0.442065	-0.065592	1.005672	-0.678389	-0.153658	1.056492	-0.394419	-0.148759	1.045433	-0.722133	-0.251483	1.043242	-0.511289	-0.243283	1.044186	-0.614547	-0.251043	1.042309	-0.562525	-0.142736	0.729731	-0.355760	-0.130791	0.670758	-0.352926	-0.067347	0.679412	-0.346902	-0.070201	0.740933	-0.350063	-0.103339	0.481640	-0.352995	-0.098393	0.466854	-0.483612	-0.206068	0.342183	-0.331213	-0.227072	0.305339	-0.334903	-0.170924	0.281910	-0.333739	-0.156954	0.319029	-0.334612	-0.281363	0.114385	-0.345850	-0.248636	0.110942	-0.436564	-0.339939	0.087096	-0.391829	-0.181217	0.031667	-0.314585	-0.134460	0.043892	-0.394163	-0.107282	0.033980	-0.386938	-0.130833	0.743949	-0.756637	-0.116847	0.683924	-0.759905	-0.052619	0.693086	-0.764674	-0.059201	0.752717	-0.762664	-0.085502	0.478878	-0.752492	-0.070861	0.467216	-0.626422	-0.181517	0.326537	-0.773684	-0.194800	0.283606	-0.768538	-0.144272	0.267488	-0.759476	-0.125445	0.303746	-0.763281	-0.237658	0.107050	-0.764053	-0.228867	0.109110	-0.670250	-0.311422	0.086057	-0.725864	-0.137197	0.028277	-0.773673	-0.110278	0.044267	-0.692441	-0.085020	0.032423	-0.688120	
753	3.7650	-0.110047	1.531755	-0.564828	-0.045089	1.476666	-0.770751	-0.028976	1.471179	-0.359671	0.014899	1.434738	-0.564451	-0.067809	0.996247	-0.441866	-0.065611	1.002363	-0.678402	-0.153609	1.052119	-0.393850	-0.149225	1.041192	-0.722315	-0.251693	1.038801	-0.510976	-0.243769	1.039899	-0.614270	-0.251388	1.037847	-0.562193	-0.141932	0.726568	-0.355579	-0.129744	0.667587	-0.352845	-0.066419	0.676330	-0.346760	-0.069355	0.737847	-0.349937	-0.102254	0.478482	-0.352928	-0.097269	0.463757	-0.483451	-0.205864	0.339714	-0.331487	-0.227053	0.302986	-0.335128	-0.171116	0.279283	-0.333768	-0.156873	0.316232	-0.334699	-0.282335	0.112324	-0.346031	-0.249566	0.108904	-0.436834	-0.341003	0.084752	-0.392085	-0.181777	0.031088	-0.314109	-0.134694	0.043859	-0.393898	-0.107434	0.033953	-0.386817	-0.130301	0.740510	-0.756562	-0.116069	0.680498	-0.759823	-0.051918	0.689916	-0.764674	-0.058704	0.749534	-0.762664	-0.084834	0.475846	-0.752355	-0.069485	0.464268	-0.626431	-0.181524	0.324031	-0.773246	-0.194979	0.281161	-0.768064	-0.144500	0.264855	-0.759019	-0.125546	0.301005	-0.762855	-0.238818	0.105020	-0.763237	-0.229805	0.106982	-0.669372	-0.312518	0.083473	-0.724979	-0.137617	0.027966	-0.773850	-0.110447	0.044088	-0.692323	-0.085021	0.032360	-0.688102	
754	3.7700	-0.110331	1.528762	-0.564981	-0.045156	1.473352	-0.770743	-0.029337	1.468058	-0.359738	0.014802	1.431320	-0.564517	-0.067604	0.992889	-0.441691	-0.065621	0.999172	-0.678445	-0.153564	1.047812	-0.393252	-0.149784	1.037084	-0.722491	-0.251898	1.034534	-0.510641	-0.244257	1.035755	-0.613980	-0.251722	1.033531	-0.561830	-0.141147	0.723599	-0.355359	-0.128753	0.664603	-0.352687	-0.065489	0.673440	-0.346604	-0.068516	0.734956	-0.349809	-0.101175	0.475526	-0.352804	-0.096088	0.460780	-0.483240	-0.205667	0.337454	-0.331714	-0.227008	0.300840	-0.335311	-0.171280	0.276866	-0.333725	-0.156778	0.313664	-0.334701	-0.283183	0.110426	-0.346131	-0.250424	0.107022	-0.437007	-0.341965	0.082611	-0.392204	-0.182284	0.030546	-0.313602	-0.134923	0.043831	-0.393628	-0.107603	0.033901	-0.386701	-0.129809	0.737220	-0.756422	-0.115355	0.677261	-0.759716	-0.051280	0.686868	-0.764664	-0.058251	0.746475	-0.762659	-0.084199	0.472914	-0.752174	-0.068098	0.461419	-0.626424	-0.181512	0.321594	-0.772772	-0.195127	0.278787	-0.767547	-0.144695	0.262296	-0.758524	-0.125618	0.298348	-0.762397	-0.239899	0.103062	-0.762390	-0.230674	0.104913	-0.668488	-0.313534	0.080962	-0.724050	-0.138010	0.027707	-0.773995	-0.110597	0.043938	-0.692183	-0.085002	0.032303	-0.688077	
755	3.7750	-0.110692	1.525909	-0.565130	-0.045177	1.470215	-0.770678	-0.029702	1.465114	-0.359808	0.014707	1.428067	-0.564578	-0.067396	0.989702	-0.441542	-0.065616	0.996125	-0.678516	-0.153520	1.043615	-0.392639	-0.150416	1.033143	-0.722659	-0.252084	1.030515	-0.510296	-0.244722	1.031826	-0.613665	-0.252024	1.029426	-0.561439	-0.140383	0.720842	-0.355106	-0.127817	0.661836	-0.352463	-0.064566	0.670772	-0.346433	-0.067685	0.732290	-0.349681	-0.100097	0.472791	-0.352640	-0.094849	0.457967	-0.482982	-0.205437	0.335400	-0.331869	-0.226923	0.298892	-0.335430	-0.171383	0.274654	-0.333626	-0.156639	0.311335	-0.334632	-0.283896	0.108720	-0.346166	-0.251203	0.105323	-0.437105	-0.342816	0.080668	-0.392206	-0.182717	0.030060	-0.313101	-0.135142	0.043790	-0.393377	-0.107764	0.033840	-0.386595	-0.129374	0.734087	-0.756224	-0.114753	0.674122	-0.759509	-0.050724	0.683951	-0.764646	-0.057856	0.743539	-0.762650	-0.083578	0.470097	-0.751955	-0.066751	0.458655	-0.626390	-0.181466	0.319244	-0.772279	-0.195228	0.276506	-0.767008	-0.144845	0.259827	-0.758002	-0.125651	0.295804	-0.761912	-0.240872	0.101184	-0.761542	-0.231455	0.102905	-0.667624	-0.314464	0.078552	-0.723133	-0.138361	0.027496	-0.774110	-0.110727	0.043816	-0.692031	-0.084963	0.032254	-0.688042	
756	3.7800	-0.111086	1.523178	-0.565248	-0.045148	1.467293	-0.770562	-0.030064	1.462399	-0.359860	0.014612	1.425029	-0.564635	-0.067179	0.986712	-0.441421	-0.065591	0.993243	-0.678611	-0.153487	1.039591	-0.392028	-0.151099	1.029424	-0.722815	-0.252223	1.026809	-0.509948	-0.245127	1.028171	-0.613346	-0.252266	1.025617	-0.561033	-0.139637	0.718329	-0.354835	-0.126937	0.659312	-0.352186	-0.063647	0.668345	-0.346255	-0.066866	0.729862	-0.349559	-0.099021	0.470280	-0.352435	-0.093556	0.455360	-0.482690	-0.205123	0.333537	-0.331933	-0.226772	0.297133	-0.335462	-0.171379	0.272624	-0.333490	-0.156420	0.309227	-0.334511	-0.284475	0.107189	-0.346160	-0.251886	0.103828	-0.437160	-0.343557	0.078916	-0.392142	-0.183082	0.029631	-0.312625	-0.135336	0.043740	-0.393159	-0.107904	0.033775	-0.386503	-0.129005	0.731131	-0.755977	-0.114259	0.671176	-0.759259	-0.050262	0.681165	-0.764612	-0.057523	0.740742	-0.762633	-0.082962	0.467419	-0.751707	-0.065485	0.455981	-0.626314	-0.181383	0.317006	-0.771774	-0.195280	0.274342	-0.766465	-0.144948	0.257482	-0.757468	-0.125645	0.293384	-0.761408	-0.241727	0.099399	-0.760718	-0.232150	0.100990	-0.666789	-0.315296	0.076252	-0.722254	-0.138666	0.027327	-0.774201	-0.110834	0.043718	-0.691869	-0.084908	0.032206	-0.688001	
757	3.7850	-0.111547	1.520619	-0.565352	-0.045102	1.464599	-0.770417	-0.030426	1.459903	-0.359904	0.014509	1.422253	-0.564687	-0.066946	0.983947	-0.441327	-0.065533	0.990543	-0.678723	-0.153471	1.035801	-0.391441	-0.151772	1.025951	-0.722967	-0.252294	1.023486	-0.509615	-0.245429	1.024861	-0.613037	-0.252427	1.022195	-0.560654	-0.138912	0.716067	-0.354541	-0.126073	0.657040	-0.351879	-0.062738	0.666179	-0.346075	-0.066060	0.727687	-0.349447	-0.097946	0.467999	-0.352185	-0.092251	0.452990	-0.482361	-0.204704	0.331832	-0.331899	-0.226535	0.295547	-0.335400	-0.171239	0.270769	-0.333341	-0.156098	0.307320	-0.334365	-0.284925	0.105844	-0.346114	-0.252468	0.102531	-0.437187	-0.344184	0.077369	-0.392038	-0.183384	0.029267	-0.312188	-0.135484	0.043704	-0.392968	-0.108033	0.033683	-0.386432	-0.128706	0.728364	-0.755690	-0.113867	0.668425	-0.758966	-0.049902	0.678526	-0.764551	-0.057257	0.738094	-0.762600	-0.082347	0.464897	-0.751418	-0.064337	0.453417	-0.626199	-0.181273	0.314909	-0.771271	-0.195291	0.272315	-0.765936	-0.145016	0.255276	-0.756928	-0.125605	0.291117	-0.760895	-0.242460	0.097729	-0.759944	-0.232772	0.099183	-0.666019	-0.316029	0.074114	-0.721461	-0.138923	0.027198	-0.774271	-0.110920	0.043647	-0.691703	-0.084845	0.032164	-0.687958	
758	3.7900	-0.112038	1.518258	-0.565434	-0.045150	1.462181	-0.770302	-0.030782	1.457636	-0.359952	0.014392	1.419780	-0.564731	-0.066684	0.981442	-0.441263	-0.065431	0.988047	-0.678844	-0.153469	1.032343	-0.390897	-0.152395	1.022779	-0.723118	-0.252274	1.020620	-0.509332	-0.245596	1.021970	-0.612759	-0.252478	1.019238	-0.560321	-0.138205	0.714068	-0.354227	-0.125232	0.655026	-0.351548	-0.061848	0.664280	-0.345896	-0.065276	0.725779	-0.349344	-0.096885	0.465945	-0.351898	-0.090976	0.450885	-0.482012	-0.204177	0.330271	-0.331779	-0.226213	0.294115	-0.335250	-0.170983	0.269077	-0.333199	-0.155682	0.305587	-0.334239	-0.285250	0.104676	-0.346039	-0.252938	0.101415	-0.437187	-0.344701	0.076014	-0.391912	-0.183618	0.028979	-0.311807	-0.135595	0.043664	-0.392816	-0.108119	0.033600	-0.386375	-0.128474	0.725808	-0.755370	-0.113605	0.665845	-0.758600	-0.049636	0.676055	-0.764453	-0.057053	0.735619	-0.762545	-0.081748	0.462556	-0.751105	-0.063329	0.451003	-0.626044	-0.181148	0.312985	-0.770782	-0.195279	0.270447	-0.765427	-0.145064	0.253237	-0.756395	-0.125548	0.289034	-0.760387	-0.243089	0.096194	-0.759233	-0.233324	0.097507	-0.665316	-0.316667	0.072141	-0.720767	-0.139137	0.027101	-0.774328	-0.110985	0.043598	-0.691536	-0.084778	0.032126	-0.687915	
